<?xml version="1.0" encoding="UTF-8" standalone="no"?>
<svg
   xmlns:dc="http://purl.org/dc/elements/1.1/"
   xmlns:cc="http://creativecommons.org/ns#"
   xmlns:rdf="http://www.w3.org/1999/02/22-rdf-syntax-ns#"
   xmlns:svg="http://www.w3.org/2000/svg"
   xmlns="http://www.w3.org/2000/svg"
   viewBox="0 0 768 512"
   height="512"
   width="768"
   version="1.1"
   id="svg4136">
  <metadata
     id="metadata4142">
    <rdf:RDF>
      <cc:Work
         rdf:about="">
        <dc:format>image/svg+xml</dc:format>
        <dc:type
           rdf:resource="http://purl.org/dc/dcmitype/StillImage" />
        <dc:title></dc:title>
      </cc:Work>
    </rdf:RDF>
  </metadata>
  <defs
     id="defs4140" />
  <path
     id="path4148"
     d="m 448.62389,354.27757 c -14.88625,-2.33057 -26.20513,-8.51343 -32.75892,-17.89434 l -3.77186,-5.39894 0,10.19753 0,10.19753 -14.75,-0.27674 -14.75,-0.27673 -0.5,-99.90079 -0.5,-99.90079 -53.95116,99.65079 -53.95116,99.65079 -116.83403,0 c -110.980991,0 -116.784419,-0.0877 -115.84396,-1.75 0.544531,-0.9625 25.013013,-46.075 54.374399,-100.25 l 53.384351,-98.5 132.16078,-0.25368 132.16078,-0.25367 0,37.00367 c 0,20.35203 0.24875,37.00368 0.55277,37.00368 0.30403,0 2.99792,-2.64105 5.98643,-5.869 9.2692,-10.01184 23.71129,-16.14868 37.9209,-16.11364 40.39848,0.0996 66.16558,32.9855 64.23597,81.98264 -0.94583,24.0167 -7.17264,41.17924 -19.7408,54.41024 -7.33475,7.72158 -14.54379,12.25017 -23.85401,14.98465 -6.79066,1.99447 -21.74583,2.78182 -29.57048,1.5568 z m 11.30186,-25.41375 c 8.36284,-1.13496 16.74178,-7.01905 22.96314,-16.1258 6.95731,-10.18402 10.2422,-34.15417 6.80051,-49.62393 -3.59577,-16.1623 -12.06121,-28.31875 -23.39979,-33.6023 -4.84449,-2.25744 -7.04261,-2.65311 -14.6965,-2.64546 -7.7644,0.008 -9.85591,0.40093 -15.23431,2.8638 -15.63325,7.15873 -23.60124,23.40795 -23.58432,48.09575 0.0161,23.56762 8.26676,40.92423 22.84391,48.05617 5.28067,2.58359 13.92435,4.43828 17.97472,3.85687 1.1,-0.1579 3.94969,-0.5517 6.33264,-0.8751 z m 133.16736,25.52871 c -26.31911,-3.83247 -45.05975,-19.69899 -53.34509,-45.16393 -8.54591,-26.2658 -4.65297,-59.28195 9.48175,-80.41511 7.81106,-11.67851 18.38561,-19.59402 32.28493,-24.16668 7.17134,-2.35925 9.70651,-2.66683 22.57841,-2.7393 16.56838,-0.0933 22.89089,1.18495 34.89462,7.05467 9.47258,4.63201 18.63082,13.59521 22.94238,22.4538 3.19314,6.56067 6.163,16.50969 6.163,20.64604 l 0,2.31595 -15.14887,-0.27604 -15.14886,-0.27605 -1.75242,-5.3791 c -3.64485,-11.18803 -10.74768,-17.8943 -21.94811,-20.72274 -17.31788,-4.37328 -34.26207,3.41013 -41.58403,19.10184 -4.54197,9.7339 -5.83464,16.97004 -5.80585,32.5 0.0241,12.98201 0.30604,15.34457 2.69334,22.56742 4.45614,13.48215 12.06797,22.18324 22.6948,25.94244 5.99287,2.11996 16.53333,2.13802 22.8524,0.0392 9.93239,-3.299 18.44859,-13.81677 21.29423,-26.29902 l 1.19687,-5.25 15.41615,0 15.41615,0 -0.68963,4.25 c -0.37929,2.3375 -1.84088,7.77506 -3.24797,12.08347 -6.72772,20.59974 -21.76293,35.08443 -41.66982,40.14408 -7.32001,1.8605 -22.20931,2.66069 -29.56838,1.5891 z"
     style="fill:#000000" />
</svg>
